<svg width="50px" height="50px" viewBox="0 0 1024 1024" xmlns="http://www.w3.org/2000/svg" fill="#000000"><g id="SVGRepo_bgCarrier" stroke-width="0"></g><g id="SVGRepo_tracerCarrier" stroke-linecap="round" stroke-linejoin="round"></g><g id="SVGRepo_iconCarrier"><path d="M868 80H156C119.4 80 90 109.4 90 146v732c0 36.6 29.4 66 66 66h712c36.6 0 66-29.4 66-66V146c0-36.6-29.4-66-66-66z m10 798c0 5.5-4.5 10-10 10H156c-5.5 0-10-4.5-10-10V146c0-5.5 4.5-10 10-10h712c5.5 0 10 4.5 10 10v732z" fill="#000000"></path><path d="M466.9 679.7L330 542.8c-11.1-11.1-29.1-11.1-40.2 0-11.1 11.1-11.1 29.1 0 40.2l158.6 158.6c2.7 2.7 5.8 4.8 9.2 6.2 0.2 0.1 0.4 0.1 0.6 0.2 3.5 1.4 7.2 2.2 11 2.2h0.2c7.5 0 14.6-2.9 20-8.2l350-350c11.1-11.1 11.1-29.1 0-40.2-11.1-11.1-29.1-11.1-40.2 0l-329.3 329.3z" fill="#000000"></path></g></svg>
